<svg width="30" height="30" viewBox="0 0 75 75" fill="none" xmlns="http://www.w3.org/2000/svg">
<g clip-path="url(#clip0_110_27)">
<rect width="75" height="75" rx="10" fill="white"/>
<path d="M37.5 58.125C38.6687 58.125 39.6491 57.729 40.4411 56.937C41.2304 56.1477 41.625 55.1687 41.625 54V41.625H54C55.1687 41.625 56.1477 41.229 56.937 40.437C57.729 39.6477 58.125 38.6687 58.125 37.5C58.125 36.3313 57.729 35.3509 56.937 34.5589C56.1477 33.7696 55.1687 33.375 54 33.375H41.625V21C41.625 19.8313 41.2304 18.8509 40.4411 18.0589C39.6491 17.2696 38.6687 16.875 37.5 16.875C36.3313 16.875 35.3523 17.2696 34.563 18.0589C33.771 18.8509 33.375 19.8313 33.375 21V33.375H21C19.8313 33.375 18.8509 33.7696 18.0589 34.5589C17.2696 35.3509 16.875 36.3313 16.875 37.5C16.875 38.6687 17.2696 39.6477 18.0589 40.437C18.8509 41.229 19.8313 41.625 21 41.625H33.375V54C33.375 55.1687 33.771 56.1477 34.563 56.937C35.3523 57.729 36.3313 58.125 37.5 58.125ZM8.625 74.625C6.35625 74.625 4.41337 73.8179 2.79637 72.2036C1.18212 70.5866 0.375 68.6438 0.375 66.375V8.625C0.375 6.35625 1.18212 4.41337 2.79637 2.79637C4.41337 1.18212 6.35625 0.375 8.625 0.375H66.375C68.6438 0.375 70.5866 1.18212 72.2036 2.79637C73.8179 4.41337 74.625 6.35625 74.625 8.625V66.375C74.625 68.6438 73.8179 70.5866 72.2036 72.2036C70.5866 73.8179 68.6438 74.625 66.375 74.625H8.625Z" fill="#FF3C1A"/>
</g>
<defs>
<clipPath id="clip0_110_27">
<rect width="75" height="75" rx="10" fill="white"/>
</clipPath>
</defs>
</svg>
