<svg width="75" height="75" viewBox="0 0 154 154" fill="" xmlns="http://www.w3.org/2000/svg">
<path d="M76.9999 109.083C78.818 109.083 80.343 108.467 81.575 107.235C82.8027 106.008 83.4166 104.485 83.4166 102.667V83.4166H102.827C104.645 83.4166 106.142 82.8006 107.319 81.5686C108.495 80.3409 109.083 78.818 109.083 77C109.083 75.1819 108.467 73.6569 107.235 72.4249C106.008 71.1972 104.485 70.5833 102.667 70.5833H83.4166V51.1729C83.4166 49.3548 82.8027 47.8576 81.575 46.6812C80.343 45.5048 78.818 44.9166 76.9999 44.9166C75.1819 44.9166 73.659 45.5305 72.4313 46.7582C71.1993 47.9902 70.5833 49.5153 70.5833 51.3333V70.5833H51.1728C49.3548 70.5833 47.8576 71.1972 46.6812 72.4249C45.5048 73.6569 44.9166 75.1819 44.9166 77C44.9166 78.818 45.5304 80.3409 46.7582 81.5686C47.9902 82.8006 49.5152 83.4166 51.3333 83.4166H70.5833V102.827C70.5833 104.645 71.1993 106.142 72.4313 107.319C73.659 108.495 75.1819 109.083 76.9999 109.083V109.083ZM76.9999 141.167C68.1235 141.167 59.7819 139.481 51.9749 136.11C44.168 132.744 37.377 128.173 31.602 122.398C25.827 116.623 21.2562 109.832 17.8896 102.025C14.5187 94.218 12.8333 85.8764 12.8333 77C12.8333 68.1236 14.5187 59.7819 17.8896 51.975C21.2562 44.168 25.827 37.3771 31.602 31.6021C37.377 25.8271 44.168 21.2541 51.9749 17.8832C59.7819 14.5166 68.1235 12.8333 76.9999 12.8333C85.8763 12.8333 94.218 14.5166 102.025 17.8832C109.832 21.2541 116.623 25.8271 122.398 31.6021C128.173 37.3771 132.744 44.168 136.11 51.975C139.481 59.7819 141.167 68.1236 141.167 77C141.167 85.8764 139.481 94.218 136.11 102.025C132.744 109.832 128.173 116.623 122.398 122.398C116.623 128.173 109.832 132.744 102.025 136.11C94.218 139.481 85.8763 141.167 76.9999 141.167Z" fill=""/>
</svg>
