<svg width="55" height="55" viewBox="0 0 54 52" fill="none" xmlns="http://www.w3.org/2000/svg">
<g clip-path="url(#clip0_104_31)">
<rect x="1" y="1" width="52" height="50" rx="25" fill="white"/>
<path d="M27 38.5C27.7367 38.5 28.3546 38.26 28.8538 37.78C29.3513 37.3017 29.6 36.7083 29.6 36V28.5H37.465C38.2017 28.5 38.8083 28.26 39.285 27.78C39.7617 27.3017 40 26.7083 40 26C40 25.2917 39.7504 24.6975 39.2512 24.2175C38.7537 23.7392 38.1367 23.5 37.4 23.5H29.6V15.9375C29.6 15.2292 29.3513 14.6458 28.8538 14.1875C28.3546 13.7292 27.7367 13.5 27 13.5C26.2633 13.5 25.6463 13.7392 25.1488 14.2175C24.6496 14.6975 24.4 15.2917 24.4 16V23.5H16.535C15.7983 23.5 15.1917 23.7392 14.715 24.2175C14.2383 24.6975 14 25.2917 14 26C14 26.7083 14.2487 27.3017 14.7462 27.78C15.2454 28.26 15.8633 28.5 16.6 28.5H24.4V36.0625C24.4 36.7708 24.6496 37.3542 25.1488 37.8125C25.6463 38.2708 26.2633 38.5 27 38.5V38.5ZM27 51C23.4033 51 20.0233 50.3433 16.86 49.03C13.6967 47.7183 10.945 45.9375 8.605 43.6875C6.265 41.4375 4.41293 38.7917 3.0488 35.75C1.68293 32.7083 1 29.4583 1 26C1 22.5417 1.68293 19.2917 3.0488 16.25C4.41293 13.2083 6.265 10.5625 8.605 8.3125C10.945 6.0625 13.6967 4.28083 16.86 2.9675C20.0233 1.65583 23.4033 1 27 1C30.5967 1 33.9767 1.65583 37.14 2.9675C40.3033 4.28083 43.055 6.0625 45.395 8.3125C47.735 10.5625 49.5871 13.2083 50.9512 16.25C52.3171 19.2917 53 22.5417 53 26C53 29.4583 52.3171 32.7083 50.9512 35.75C49.5871 38.7917 47.735 41.4375 45.395 43.6875C43.055 45.9375 40.3033 47.7183 37.14 49.03C33.9767 50.3433 30.5967 51 27 51Z" fill="#FF3C1A"/>
</g>
<rect x="1" y="1" width="52" height="50" rx="25" stroke="#FF3C1A" stroke-width="2"/>
<defs>
<clipPath id="clip0_104_31">
<rect x="1" y="1" width="52" height="50" rx="25" fill="white"/>
</clipPath>
</defs>
</svg>
