<svg width="75" height="75" viewBox="0 0 103 100" fill="none" xmlns="http://www.w3.org/2000/svg">
<g clip-path="url(#clip0_49_35)">
<rect width="103" height="100" rx="50" fill="white"/>
<path d="M51.5464 74.537C52.9799 74.537 54.1823 74.0659 55.1536 73.1237C56.1216 72.1848 56.6056 71.0201 56.6056 69.6296V54.9074H71.9096C73.3431 54.9074 74.5235 54.4363 75.4511 53.4941C76.3786 52.5551 76.8423 51.3904 76.8423 50C76.8423 48.6096 76.3567 47.4432 75.3853 46.501C74.4173 45.5621 73.2166 45.0926 71.7832 45.0926H56.6056V30.2477C56.6056 28.8573 56.1216 27.7122 55.1536 26.8125C54.1823 25.9128 52.9799 25.463 51.5464 25.463C50.113 25.463 48.9123 25.9324 47.9443 26.8714C46.9729 27.8136 46.4872 28.9799 46.4872 30.3704V45.0926H31.1832C29.7498 45.0926 28.5693 45.5621 27.6418 46.501C26.7143 47.4432 26.2505 48.6096 26.2505 50C26.2505 51.3904 26.7345 52.5551 27.7025 53.4941C28.6739 54.4363 29.8763 54.9074 31.3097 54.9074H46.4872V69.7523C46.4872 71.1428 46.9729 72.2878 47.9443 73.1875C48.9123 74.0872 50.113 74.537 51.5464 74.537ZM51.5464 99.0741C44.5479 99.0741 37.9709 97.7851 31.8156 95.2071C25.6603 92.6323 20.306 89.1366 15.7527 84.7199C11.1994 80.3033 7.59561 75.1096 4.94123 69.1389C2.28347 63.1682 0.95459 56.7886 0.95459 50C0.95459 43.2114 2.28347 36.8318 4.94123 30.8611C7.59561 24.8904 11.1994 19.6968 15.7527 15.2801C20.306 10.8634 25.6603 7.36609 31.8156 4.78806C37.9709 2.21331 44.5479 0.925934 51.5464 0.925934C58.545 0.925934 65.1219 2.21331 71.2772 4.78806C77.4326 7.36609 82.7869 10.8634 87.3401 15.2801C91.8934 19.6968 95.4972 24.8904 98.1516 30.8611C100.809 36.8318 102.138 43.2114 102.138 50C102.138 56.7886 100.809 63.1682 98.1516 69.1389C95.4972 75.1096 91.8934 80.3033 87.3401 84.7199C82.7869 89.1366 77.4326 92.6323 71.2772 95.2071C65.1219 97.7851 58.545 99.0741 51.5464 99.0741Z" fill="#ff3c1a"/>
</g>
<defs>
<clipPath id="clip0_49_35">
<rect width="103" height="100" rx="50" fill="white"/>
</clipPath>
</defs>
</svg>
