<svg width="50" height="50" viewBox="0 0 92 153" fill="none" xmlns="http://www.w3.org/2000/svg">
<path d="M8.81665 146.115C6.89998 144.202 5.94165 141.938 5.94165 139.322C5.94165 136.711 6.89998 134.449 8.81665 132.536L64.975 76.5L8.62498 20.2725C6.83609 18.4875 5.94165 16.2562 5.94165 13.5787C5.94165 10.9012 6.89998 8.60625 8.81665 6.69375C10.7333 4.78125 13.0027 3.825 15.6247 3.825C18.2415 3.825 20.5083 4.78125 22.425 6.69375L86.825 71.145C87.5917 71.91 88.136 72.7387 88.458 73.6312C88.7749 74.5238 88.9333 75.48 88.9333 76.5C88.9333 77.52 88.7749 78.4762 88.458 79.3688C88.136 80.2612 87.5917 81.09 86.825 81.855L22.2333 146.306C20.4444 148.091 18.2415 148.984 15.6247 148.984C13.0027 148.984 10.7333 148.027 8.81665 146.115Z" fill="#FF3C1A"/>
</svg>
