<svg width="50" height="50" viewBox="0 0 87 87" fill="none" xmlns="http://www.w3.org/2000/svg">
<g clip-path="url(#clip0_103_32)">
<rect width="87" height="87" rx="43.5" fill="white"/>
<path d="M37.4917 51.225L28.1573 41.8906C27.3705 41.1038 26.4049 40.7104 25.2605 40.7104C24.116 40.7104 23.1146 41.1396 22.2563 41.9979C21.4695 42.7847 21.0761 43.7861 21.0761 45.0021C21.0761 46.2181 21.4695 47.2195 22.2563 48.0063L34.4875 60.2375C35.2743 61.0243 36.2757 61.4177 37.4917 61.4177C38.7077 61.4177 39.7091 61.0243 40.4959 60.2375L64.8511 35.8823C65.6379 35.0955 66.0313 34.1299 66.0313 32.9854C66.0313 31.841 65.6021 30.8396 64.7438 29.9813C63.957 29.1945 62.9556 28.8011 61.7396 28.8011C60.5237 28.8011 59.5223 29.1945 58.7355 29.9813L37.4917 51.225ZM43.5 86.4167C37.5632 86.4167 31.9841 85.2894 26.7625 83.0348C21.541 80.7831 16.999 77.7261 13.1365 73.8636C9.274 70.0011 6.2169 65.459 3.96521 60.2375C1.71065 55.016 0.583374 49.4368 0.583374 43.5C0.583374 37.5632 1.71065 31.984 3.96521 26.7625C6.2169 21.541 9.274 16.999 13.1365 13.1365C16.999 9.27397 21.541 6.21544 26.7625 3.96088C31.9841 1.70919 37.5632 0.583344 43.5 0.583344C49.4368 0.583344 55.016 1.70919 60.2375 3.96088C65.4591 6.21544 70.0011 9.27397 73.8636 13.1365C77.7261 16.999 80.7832 21.541 83.0349 26.7625C85.2894 31.984 86.4167 37.5632 86.4167 43.5C86.4167 49.4368 85.2894 55.016 83.0349 60.2375C80.7832 65.459 77.7261 70.0011 73.8636 73.8636C70.0011 77.7261 65.4591 80.7831 60.2375 83.0348C55.016 85.2894 49.4368 86.4167 43.5 86.4167Z" fill="#FF3C1A"/>
</g>
<defs>
<clipPath id="clip0_103_32">
<rect width="87" height="87" rx="43.5" fill="white"/>
</clipPath>
</defs>
</svg>
