<svg width="50" height="50" viewBox="0 0 89 89" fill="none" xmlns="http://www.w3.org/2000/svg">
<g clip-path="url(#clip0_103_32)">
<rect x="1" y="1" width="87" height="87" rx="43.5" fill="white"/>
<path d="M38.4916 52.225L29.1572 42.8906C28.3704 42.1038 27.4048 41.7104 26.2603 41.7104C25.1159 41.7104 24.1145 42.1396 23.2562 42.9979C22.4694 43.7847 22.076 44.7861 22.076 46.0021C22.076 47.2181 22.4694 48.2195 23.2562 49.0063L35.4874 61.2375C36.2742 62.0243 37.2756 62.4177 38.4916 62.4177C39.7076 62.4177 40.7089 62.0243 41.4958 61.2375L65.851 36.8823C66.6378 36.0955 67.0312 35.1299 67.0312 33.9854C67.0312 32.841 66.602 31.8396 65.7437 30.9813C64.9569 30.1945 63.9555 29.8011 62.7395 29.8011C61.5235 29.8011 60.5221 30.1945 59.7353 30.9813L38.4916 52.225ZM44.4999 87.4167C38.5631 87.4167 32.9839 86.2894 27.7624 84.0348C22.5409 81.7831 17.9989 78.7261 14.1364 74.8636C10.2739 71.0011 7.21678 66.459 4.96509 61.2375C2.71053 56.016 1.58325 50.4368 1.58325 44.5C1.58325 38.5632 2.71053 32.984 4.96509 27.7625C7.21678 22.541 10.2739 17.999 14.1364 14.1365C17.9989 10.274 22.5409 7.21544 27.7624 4.96089C32.9839 2.70919 38.5631 1.58334 44.4999 1.58334C50.4367 1.58334 56.0159 2.70919 61.2374 4.96089C66.4589 7.21544 71.001 10.274 74.8635 14.1365C78.726 17.999 81.7831 22.541 84.0348 27.7625C86.2893 32.984 87.4166 38.5632 87.4166 44.5C87.4166 50.4368 86.2893 56.016 84.0348 61.2375C81.7831 66.459 78.726 71.0011 74.8635 74.8636C71.001 78.7261 66.4589 81.7831 61.2374 84.0348C56.0159 86.2894 50.4367 87.4167 44.4999 87.4167Z" fill="#FF3C1A"/>
</g>
<rect x="1" y="1" width="87" height="87" rx="43.5" stroke="#FF3C1A" stroke-width="2"/>
<defs>
<clipPath id="clip0_103_32">
<rect x="1" y="1" width="87" height="87" rx="43.5" fill="white"/>
</clipPath>
</defs>
</svg>
