<svg width="50" height="50" viewBox="0 0 193 193" fill="" xmlns="http://www.w3.org/2000/svg">
<path d="M80.4167 109.367L127.863 61.9208C129.337 60.4465 131.213 59.7094 133.492 59.7094C135.77 59.7094 137.647 60.4465 139.121 61.9208C140.595 63.3951 141.332 65.2715 141.332 67.55C141.332 69.8284 140.595 71.7048 139.121 73.1791L86.0458 126.254C84.4375 127.862 82.5611 128.667 80.4167 128.667C78.2722 128.667 76.3959 127.862 74.7875 126.254L53.8792 105.346C52.4049 103.872 51.6677 101.995 51.6677 99.7166C51.6677 97.4382 52.4049 95.5618 53.8792 94.0875C55.3535 92.6132 57.2299 91.876 59.5083 91.876C61.7868 91.876 63.6632 92.6132 65.1375 94.0875L80.4167 109.367Z" fill=""/>
</svg>
