<svg width="30" height="30" viewBox="0 0 79 79" fill="none" xmlns="http://www.w3.org/2000/svg">
<g clip-path="url(#clip0_108_27)">
<path d="M39.5 47.725L10.7125 76.5125C9.63543 77.5896 8.26459 78.1281 6.60001 78.1281C4.93543 78.1281 3.56459 77.5896 2.48751 76.5125C1.41043 75.4354 0.871887 74.0646 0.871887 72.4C0.871887 70.7354 1.41043 69.3646 2.48751 68.2875L31.275 39.5L2.48751 10.7125C1.41043 9.63543 0.871887 8.26459 0.871887 6.60001C0.871887 4.93543 1.41043 3.56459 2.48751 2.48751C3.56459 1.41043 4.93543 0.871887 6.60001 0.871887C8.26459 0.871887 9.63543 1.41043 10.7125 2.48751L39.5 31.275L68.2875 2.48751C69.3646 1.41043 70.7354 0.871887 72.4 0.871887C74.0646 0.871887 75.4354 1.41043 76.5125 2.48751C77.5896 3.56459 78.1281 4.93543 78.1281 6.60001C78.1281 8.26459 77.5896 9.63543 76.5125 10.7125L47.725 39.5L76.5125 68.2875C77.5896 69.3646 78.1281 70.7354 78.1281 72.4C78.1281 74.0646 77.5896 75.4354 76.5125 76.5125C75.4354 77.5896 74.0646 78.1281 72.4 78.1281C70.7354 78.1281 69.3646 77.5896 68.2875 76.5125L39.5 47.725Z" fill="#FF3C1A"/>
</g>
<defs>
<clipPath id="clip0_108_27">
<rect width="79" height="79" fill="white"/>
</clipPath>
</defs>
</svg>
