<svg width="30" height="30" viewBox="0 0 82 82" fill="" xmlns="http://www.w3.org/2000/svg">
<path d="M23.9166 71.75C22.0375 71.75 20.4293 71.0815 19.0923 69.7444C17.753 68.4051 17.0833 66.7958 17.0833 64.9167V20.5C16.1152 20.5 15.3032 20.1731 14.6472 19.5194C13.9935 18.8634 13.6666 18.0514 13.6666 17.0833C13.6666 16.1153 13.9935 15.3033 14.6472 14.6473C15.3032 13.9935 16.1152 13.6667 17.0833 13.6667H30.75C30.75 12.6986 31.078 11.8866 31.734 11.2306C32.3877 10.5769 33.1986 10.25 34.1666 10.25H47.8333C48.8013 10.25 49.6134 10.5769 50.2694 11.2306C50.9231 11.8866 51.25 12.6986 51.25 13.6667H64.9166C65.8847 13.6667 66.6956 13.9935 67.3493 14.6473C68.0053 15.3033 68.3333 16.1153 68.3333 17.0833C68.3333 18.0514 68.0053 18.8634 67.3493 19.5194C66.6956 20.1731 65.8847 20.5 64.9166 20.5V64.9167C64.9166 66.7958 64.2481 68.4051 62.911 69.7444C61.5717 71.0815 59.9625 71.75 58.0833 71.75H23.9166ZM23.9166 20.5V64.9167H58.0833V20.5H23.9166ZM30.75 54.6667C30.75 55.6347 31.078 56.4456 31.734 57.0993C32.3877 57.7553 33.1986 58.0833 34.1666 58.0833C35.1347 58.0833 35.9467 57.7553 36.6027 57.0993C37.2564 56.4456 37.5833 55.6347 37.5833 54.6667V30.75C37.5833 29.7819 37.2564 28.9699 36.6027 28.3139C35.9467 27.6602 35.1347 27.3333 34.1666 27.3333C33.1986 27.3333 32.3877 27.6602 31.734 28.3139C31.078 28.9699 30.75 29.7819 30.75 30.75V54.6667ZM44.4166 54.6667C44.4166 55.6347 44.7446 56.4456 45.4006 57.0993C46.0543 57.7553 46.8652 58.0833 47.8333 58.0833C48.8013 58.0833 49.6134 57.7553 50.2694 57.0993C50.9231 56.4456 51.25 55.6347 51.25 54.6667V30.75C51.25 29.7819 50.9231 28.9699 50.2694 28.3139C49.6134 27.6602 48.8013 27.3333 47.8333 27.3333C46.8652 27.3333 46.0543 27.6602 45.4006 28.3139C44.7446 28.9699 44.4166 29.7819 44.4166 30.75V54.6667ZM23.9166 20.5V64.9167V20.5Z" fill="#ff3c1a"/>
</svg>
