<svg width="30" height="30" viewBox="0 0 134 134" fill="" xmlns="http://www.w3.org/2000/svg">
<path d="M107.758 49.8312L84.0292 26.3812L91.8458 18.5646C93.9861 16.4243 96.6159 15.3542 99.7351 15.3542C102.851 15.3542 105.478 16.4243 107.619 18.5646L115.435 26.3812C117.576 28.5215 118.692 31.1047 118.785 34.1309C118.878 37.1534 117.855 39.7347 115.715 41.875L107.758 49.8312ZM22.3333 117.25C20.7514 117.25 19.4263 116.714 18.358 115.642C17.286 114.574 16.75 113.249 16.75 111.667V95.8937C16.75 95.1493 16.8896 94.429 17.1688 93.733C17.4479 93.0332 17.8667 92.4042 18.425 91.8458L75.9333 34.3375L99.6625 58.0667L42.1542 115.575C41.5958 116.133 40.9686 116.552 40.2726 116.831C39.5728 117.11 38.8507 117.25 38.1062 117.25H22.3333Z" fill="#ff4d52"/>
</svg>
