<svg width="60" height="60" viewBox="0 0 224 224" fill="none" xmlns="http://www.w3.org/2000/svg">
<g clip-path="url(#clip0_44_50)">
<rect width="224" height="224" rx="70" fill="#FCFFFD"/>
<path d="M209.9 86.8C206.1 82.9 202.2 78.8 200.7 75.3C199.2 71.8 199.3 66.6 199.2 61.3C199.1 51.6 198.9 40.5 191.2 32.8C183.5 25.1 172.4 24.9 162.7 24.8C157.4 24.7 152 24.6 148.7 23.3C145.4 22 141.1 17.9 137.2 14.1C130.3 7.5 122.4 0 112 0C101.6 0 93.7 7.5 86.8 14.1C82.9 17.9 78.8 21.8 75.3 23.3C71.8 24.8 66.6 24.7 61.3 24.8C51.6 24.9 40.5 25.1 32.8 32.8C25.1 40.5 24.9 51.6 24.8 61.3C24.7 66.6 24.6 72 23.3 75.3C22 78.6 17.9 82.9 14.1 86.8C7.5 93.7 0 101.6 0 112C0 122.4 7.5 130.3 14.1 137.2C17.9 141.1 21.8 145.2 23.3 148.7C24.8 152.2 24.7 157.4 24.8 162.7C24.9 172.4 25.1 183.5 32.8 191.2C40.5 198.9 51.6 199.1 61.3 199.2C66.6 199.3 72 199.4 75.3 200.7C78.6 202 82.9 206.1 86.8 209.9C93.7 216.5 101.6 224 112 224C122.4 224 130.3 216.5 137.2 209.9C141.1 206.1 145.2 202.2 148.7 200.7C152.2 199.2 157.4 199.3 162.7 199.2C172.4 199.1 183.5 198.9 191.2 191.2C198.9 183.5 199.1 172.4 199.2 162.7C199.3 157.4 199.4 152 200.7 148.7C202 145.4 206.1 141.1 209.9 137.2C216.5 130.3 224 122.4 224 112C224 101.6 216.5 93.7 209.9 86.8ZM104 64C104 61.8783 104.843 59.8434 106.343 58.3431C107.843 56.8429 109.878 56 112 56C114.122 56 116.157 56.8429 117.657 58.3431C119.157 59.8434 120 61.8783 120 64V120C120 122.122 119.157 124.157 117.657 125.657C116.157 127.157 114.122 128 112 128C109.878 128 107.843 127.157 106.343 125.657C104.843 124.157 104 122.122 104 120V64ZM112 168C109.627 168 107.307 167.296 105.333 165.978C103.36 164.659 101.822 162.785 100.913 160.592C100.005 158.399 99.7676 155.987 100.231 153.659C100.694 151.331 101.836 149.193 103.515 147.515C105.193 145.837 107.331 144.694 109.659 144.231C111.987 143.768 114.399 144.005 116.592 144.913C118.785 145.822 120.659 147.36 121.978 149.333C123.296 151.307 124 153.627 124 156C124 159.183 122.736 162.235 120.485 164.485C118.235 166.736 115.183 168 112 168Z" fill="#FF3C1A"/>
</g>
<defs>
<clipPath id="clip0_44_50">
<rect width="224" height="224" rx="70" fill="white"/>
</clipPath>
</defs>
</svg>
